<svg version="1.1" id="Layer_1" xmlns="http://www.w3.org/2000/svg" x="0" y="0" viewBox="0 0 463.9 453.4" width="927.8" height="906.8" xml:space="preserve">
	<style>
		.st0{fill:none;stroke:#000;stroke-width:.35;stroke-miterlimit:10}
	</style>
	<path class="st0" d="M214.2 0c.6.4 1.1.9 1.7 1.3 3.3 2.5 6.8 5.1 9.9 7.9l1.2 1.2c.4.4.7.8 1.1 1.1 7.1 6.4 14.7 9.9 21.4 9.9q9.9 0 16.5-9.6c2.4-3.5 4.3-7.6 5.4-11.7M0 49.5c.1-.5.3-.9.4-1.4C3.2 40 8.7 34.9 14.1 29.9c4.6-4.3 9.4-8.8 12.5-15.2 1.5-3.2 3.1-8.4 3.8-14.7" />
	<path class="st0" d="M229.6 0c.5.5 1 .9 1.5 1.4 5.1 4.7 10.9 10 16.9 10 2.3 0 4.5-.8 6.5-2.3 1.9-1.4 2.8-2.9 3.8-4.4.4-.6.8-1.3 1.3-2 .4-.9.7-1.8 1-2.7M0 83.1c.1-.2.2-.4.2-.6 1.6-4.1 2.7-9.6 3.7-15C5 61.9 6 56.7 7.5 53c2.6-6.3 8-11.7 13.7-17.3 3.5-3.5 7.2-7 10.2-11 3.8-4.9 6.4-9.1 8.6-14.2 1.3-3 2.4-6.4 3.4-9.7l.3-.9M0 132.8c4.7.2 9.8.8 15 1.9 2.3.5 4.4 1.3 6.4 2.1 7.5 3 16.8 6.7 20.3 14.3.2 4.1-1.2 7.7-2.7 11.4-2.2 5.2-4.6 11.1-3.2 20.3 1.1 7 5.2 11.5 10 16.7 2 2.2 4 4.4 5.9 6.9 5 6.6 8.5 14.1 11.1 20.5 2.7 6.4 4.8 11.5 11.8 13.2 4.2 1 10.1 1.7 14.1 2.1 2.2.2 4.3.4 6.2.4 3.1 0 5.8-.3 8-1 4.8-1.4 7.8-5.3 11.6-10.2 1.1-1.5 2.3-3 3.6-4.6.9-1.1 2.1-2.3 3.4-3.6 2.6-2.7 5.4-5.4 6.1-7.6.3-.9.2-1.6.1-2.5-.1-.7-.1-1.4 0-2.3-2.6-3.4-5.7-6.1-8.7-8.7-5.1-4.5-9.9-8.7-11.8-15.6-1-3.6-.6-7.6 1.1-11.9 1.8-4.6 5.9-9.7 11.7-14.3 2.6-2.1 5.4-4.2 8.3-6.5 13.4-10.5 28.7-22.3 37-32.7v-.1c.3-1.3.2-2.7-.2-4.3-1.1-4.3-4.5-9.5-9.3-14.2-4.6-4.4-9.9-7.7-14.1-8.9-.3-.1-1-.3-1.7-.4-5.6-1.3-11.4-.4-17 .5-4.8.7-9.4 1.4-13.9.8-9.6-1.3-16.6-7.7-19-17.7-3.2-13.1 5.7-21.3 14.3-29.3 6.3-5.9 12.9-11.9 14.6-20 1.6-7.5-.5-15.7-1.9-21.1-.6-2.2-1.3-4.3-2-6.5" />
	<path class="st0" d="M128.7 0c.2.7.4 1.3.5 1.9.4 1.4.8 2.9 1.2 4.3.6 2.2 1.3 4.4 1.9 6.6 1.4 4.8 2.7 9.3 3.3 13.3.4 2.9.4 5.9 0 7.9-1.1 6.2-5.3 11.1-9.4 15.8-4.6 5.4-9.5 11-9.8 18.7.5 6.9 8.3 7.9 16.5 9 1.5.2 3.1.4 4.6.6 6 1 13 2.9 20.1 5.6 2.5.9 4.9 2.1 7.2 3.3 4.4 2.2 8.6 4.3 13.5 4.8.6.1 1.3.1 1.9.1 3.3 0 6.2-.9 8.7-1.8s4.7-1.8 6.8-2.8c4.5-2 8.7-3.8 15.2-4.4 1.2-.1 2.3-.2 3.5-.2 7.1 0 13 1.9 18.8 3.7 5 1.6 9.7 3 14.5 3 1 0 1.9 0 2.8-.2 7.4-.9 13.1-4.8 17.4-11.7 3.8-6.1 5.9-13.9 7.8-21.4.5-2.2 1.5-6.3 1.8-9.3.3-2.8-.1-4.8-1.3-6.3-2.2-2.6-6.7-2.7-11.9-2.9-2.4-.1-4.8-.2-7.2-.5-10.2-1.3-18.8-2.6-28.3-6.6-7.8-3.2-15.6-7.3-20.8-10.1-8.5-4.5-18.4-10.4-25.4-20.4M0 26.5c1.3-.9 2.6-1.8 3.9-2.6 4.2-2.7 8.3-5.3 11.1-9.6 2.2-3.4 4.1-7.5 4.2-14.3" />
	<path class="st0" d="M138.1 0c1.3 5.9 3.2 11.6 4.9 15.8.5 1.2 1 2.4 1.5 3.5 1.3 2.9 2.7 5.9 3.1 9.1 1.3 8.6-3.2 14.2-7.4 19.6-2.9 3.7-5.7 7.2-6.5 11.4-.2 1.1-.2 1.7-.1 2.6 0 .4.1.9.1 1.6 1.1 3 4.4 5.2 6.9 6.4 9.2 4.6 24.3 6.7 35.2 8.3 1.7.2 3.3.4 5 .4 4.3 0 8.2-.7 12.4-1.5 4.5-.8 9.1-1.7 14.4-1.7 1.4 0 2.9.1 4.3.2.3 0 1.1.1 2.1.1 1.5.1 3.4.2 4.7.3 4.5.3 8 1.1 11.4 1.9 4.6 1 8.8 2 15.2 2h2c5-.8 9.7-6.1 11.5-13.2 1.5-5.9 1.2-13.7-4.4-18.1-6.5-5.1-25.6-9.6-35.9-10.4-2.2-.2-4-.2-5.8-.2-2 0-4 0-6.6-.3-7.1-.6-12.9-3.4-19.5-9.3-8.2-7.3-12.7-12.9-19-24.1-.7-1.2-1.3-2.7-1.9-4.3M0 118.8c8.5-1.8 16.4-6.3 22.3-12.8 3-3.3 5.6-6.8 8.4-10.6 4.4-5.9 9-12 14.9-17.1l1.2-1.2c.4-.4.7-.8 1.1-1.1 3.9-3.4 8.3-6.1 12.5-8.8 3-1.8 6-3.7 8.9-5.8 2.3-1.7 4.6-3.5 6.8-5.2 3.4-2.6 6.8-5.3 10.3-7.7 1.7-1.1 3.4-2.2 5.2-3.4 8.9-5.7 19.1-12.2 20.6-23.9.8-6.2-.8-14.1-4.3-21.3M0 104.7c3.6-1.8 7-4 9.1-7 2.9-4.2 2.9-11.8 2.6-18-.2-5-.2-14.5 3.1-22.4 2.5-6 8.5-11.4 14.3-16.6.9-.8 1.8-1.6 2.6-2.4C43.3 27.7 49 18.2 54.1 7.2c.4-.9.8-1.9 1.2-2.9q.6-1.8 1.5-3.6c.1-.2.2-.5.4-.7M0 7.4c1.1 0 2.3-.5 3.2-1.5 1.4-1.4 2-3.7 2-5.9" />
	<path class="st0" d="M73 0c-1.4 1-2.7 2.1-3.7 3.4-3.1 3.6-5.3 8.5-7.5 13.3-.3.7-.7 1.4-1 2.2-3.2 6.8-7.1 15.2-11.3 21-2.3 3.2-6.1 5.4-10.2 7.8-5.7 3.4-11.7 6.9-14 13.4-.8 2.3-.9 4.9 0 8.1.8 1.8 2.2 2.7 4.1 2.7 3.2 0 6.9-2.5 8.5-3.8 3.1-2.6 5.8-6.2 8.4-9.7 1.4-1.8 2.8-3.8 4.3-5.6.7-.8 3.2-3.6 5.3-4.9 4.9-2.9 11.2-5.1 17.9-7.5 9.3-3.2 18.8-6.6 24.8-12.1 3.2-2.9 5.1-7.4 5.2-12.3.1-5.3-1.7-10.3-5.2-14.2-.6-.7-1.3-1.3-2-1.9m57.7 58.5c.4.4.6 1 .8 1.5v.2c1.6 1.5 3.9 2.3 6.6 2.3 3.8 0 7.7-1.6 9.5-4 1.1-1.5 1.5-3.1 1.1-4.8-.8-3.2-3.9-4.2-7.2-5.1-5.5.8-11.4 4.2-10.8 9.9zm58.2 3.7.1.1c3.5 2.2 9.2 3.6 14.2 3.6 3.3 0 9.1-.7 10.6-5.1 0-1.6-.5-2.9-1.7-4.1-2.2-2.3-6.5-3.6-11.3-3.6-6.1 0-12.7 2.3-12.8 7.6.5.4.7 1 .9 1.5zM59.4 164.8c-1.2 5.2-2.5 10.7-2 18.8 4.1 14.1 8.9 24.7 14.6 32.6 1.4 1.8 3 3.9 5.1 5.6 3 2.4 7.3 3.8 11.4 3.8s7.7-1.4 10-4c2.5-2.9 3.5-7 2.8-12.3-.4-3-1.5-6.1-2.5-9.1-1.1-3-2.2-6.1-2.5-9.1-1.6-11.5 3.4-23.4 13.1-31.8 4.1-3.6 8.4-6.5 12.5-9.3 4.5-3.1 9.1-6.2 13.4-10.2 6.6-6 14.1-12.8 15.4-23.1-.8-4.9-2.3-9.9-7.8-13.4-3.1-2-6.6-3-10.9-3-3.7 0-7.5.7-11.5 1.4-4.3.8-8.8 1.6-13.4 1.6-1.1 0-2.3 0-3.3-.1-2.2-.2-5-.9-7.9-1.6-3.9-.9-8-1.9-11.2-1.9-.7 0-1.3 0-1.8.1-4.3.7-8.9 4.4-12.5 7.6-5.9 5.3-11.4 10.9-12.3 15.4-.4 1.8-.2 4.6 0 6.7.3 3.2 1 5.8 1.7 8.4 1.1 4.6 2.3 9.4 1.8 17-.7 3.4-1.4 6.6-2.2 9.9z" />
	<path class="st0" d="M72.8 164.2c.2.9.4 1.9.5 3 .6 3.7 1.3 7.9 5.1 9.9 4.6-.3 7.5-4.4 10.6-8.8 1.1-1.5 2.2-3.2 3.5-4.6 6.8-7.9 14.5-13.1 21.9-18.1 5.2-3.6 10.1-6.9 14.5-11 1.4-.7 2.3-1.9 3.2-3.1.7-.9 1.4-1.8 2.3-2.5 4-5 5.3-10.8 3.4-14.8-1.2-2.5-4.3-5.6-11.9-5.6-1 0-2.1.1-3.2.2-2.4.2-5.3.8-8.2 1.3-3.3.6-7 1.3-10.7 1.7-.8.1-1.5.1-2.3.2-10 1-16 1.6-22 8.7-4.3 5.1-6.6 11.3-7.2 19.7-.4 5.4-.1 11.3.2 16.4.2 2.8.3 5.2.3 7.4zm139.1-25.6c1.6 15.3 3.2 29.7 15.1 40 8 6.9 20.9 14.3 33.3 14.3 7.6 0 13.8-2.8 18.5-8.3 4.1-4.8 6.1-10.4 8.5-16.9.3-.7.5-1.4.8-2.2.5-1.3.9-2.5 1.4-3.7 2.7-7 5.2-13.7 5.8-19.2 1.4-12.1-3-17-8.5-21.8-8.5-7.3-19.5-7.9-31.2-8.5-2.8-.1-6-.4-9.5-.8-5.5-.5-11.6-1-16.8-1-5.6 0-9.2.6-11.2 1.9-8.3 5.5-7.3 18.9-6.5 24.3z" />
	<path class="st0" d="M223.2 141.1c1.4 13.2 2.7 24.6 13.3 33 5 3.9 13.9 8.5 22.8 8.5 4.4 0 8.1-1.1 11.1-3.4 8.3-6.4 11.9-19.9 12.5-29.4.7-11-3.4-20.7-10.8-25.8-6.8-4.7-15.5-5.2-24.6-5.7-2-.1-4-.2-6-.2-5.8 0-12.9.7-16.5 6.3-2.1 4.3-2 9.3-1.8 14.1zM92.1 139c.4.2.6.5.9.8.3.4.7.7 1.1.9 6.1-1.1 13-4.2 18.1-8.2 2-1.6 4.4-3.8 4.8-6.5-.3-.4-.7-.8-1-1.1l-.8-.8c-.9-.1-1.9-.1-2.9-.1-5.3 0-12.5 1.6-16.9 6.1-2.3 2.4-3.4 5.4-3.3 8.9z" />
	<path class="st0" d="M245.6 168.1c3.6 2.3 7.6 3.6 11.3 3.6 4.9 0 9-2.1 11.9-6.1 6.8-9.3 3.7-26.9-6-34.2-2.6-2-7.1-4.4-13.5-4.4-1.5 0-3.1.1-4.6.4-6.8 1.1-10.3 6.5-10.2 15.5 0 6.7 1.6 19 11.1 25.2zM0 225.7c5.1-3.6 9.5-5.7 13.4-6.3 8.1-1.3 10.9 3.8 13.7 8.8.9 1.6 1.7 3.2 2.7 4.4 1.4 1.8 3.8 4.8 7.1 4.3 3.6-.5 8.3-4.8 7.4-11-.7-5-4-8.6-10.5-11.5-.4-.2-.8-.4-1.3-.5-3.1-1.3-6.1-2.6-7.5-5.6-1.4-5.9-1.7-13.9-2-22.4-.2-7-.5-14.3-1.4-20.5-1.8-11.9-7.9-19.1-18.7-21.8-.9-.2-1.9-.5-3-.6" />
	<path class="st0" d="M0 204.2c1.9-1.3 3.7-2.8 5.3-4.6 4.8-5.2 7.3-13 7-21.3-.3-8-3.3-15.3-8-19.6-1.4-1-2.9-1.7-4.3-2m137.6 19.4c.7-8.2 12-17.5 21.2-17.5.8 0 1.6.1 2.3.2 3.4.7 7.7 3.4 13 7.9 7.7 6.7 18.3 18.5 22.9 29.8.5 1.4 1.2 3.1 1.4 4.5.9 5.7-1.3 10.6-6.5 14.6-3.1 2.3-7.1 3.6-11.9 3.6-8.7 0-18.9-4.1-24.7-10-2.4-2.4-4.3-5.3-6.1-8.3q-6.15-10.05-11.1-21.6c.1-.7-.1-1.3-.2-1.9-.2-.5-.3-.9-.3-1.3z" />
	<path class="st0" d="M178.3 182.9c-4.6-4.2-10.2-7.3-14.5-8-.8-.1-1.6-.2-2.3-.2-2.7 0-4.8.8-6.4 2.5-1.8 1.9-2.8 4.9-2.6 8.5 1.9 8.1 3.8 14.7 9.5 19.3 3.6 3 9.1 4.9 14 4.9 5.9 0 10-2.7 11.2-7.4.4-1.4.3-3.4.1-4.8-.6-4.8-3.9-10.2-9-14.8zm51.9 36.7c-.7-.1-1.2-.1-1.8-.1-1.2 0-2.4.2-3.7.6-6.8 2-13.6 7.9-15.9 13.7-1.6 4.1-.9 8.6-.3 13 .6 4.1 1.2 7.9 0 11.2-1.8 5.2-6.4 8.4-10.9 11.6-4.8 3.3-9.7 6.8-10.9 12.5-.7 4 .3 7.9 3 11 3.8 4.5 10.8 7.5 17.7 7.5 4.6 0 8.5-1.2 11.5-3.5 2.4-1.8 4-4.2 5.7-6.8l.3-.4c1.7-3.4 2.3-7.4 2.9-11.8.5-3.7 1.1-7.6 2.4-11.5.8-2.3 1.6-4.2 2.4-6 2.5-5.6 4.6-10.5 3.6-22.4-.5-6.9-1.7-15.2-6-18.6zM32.3 262.2c-1-.9-2.2-1.4-3.5-1.4-2.2 0-4.5 1.4-6.6 3.7-2.5 2.9-3.9 6.7-3.4 9.4 1 4.6 5.2 7 8.8 7 2.5 0 4.7-1.1 6.2-3.1 3-4 2.1-12.4-1.5-15.6zm78.3 28.3c-.2-.3-.4-.7-.4-1-.8-.6-1.8-.9-2.8-.9-1.6 0-3.2.7-4.3 2-1.1 1.2-1.6 2.6-1.5 4 .8 1.5 2 2.3 3.7 2.3 2.5 0 5.6-2.2 5.9-5.1-.2-.5-.4-.9-.6-1.3zM396 0c1.6 1.8 3.2 3.1 5 4 5.2 2.5 11.3 2.8 16.4.7 2.5-1.1 4.7-2.7 6.3-4.7M198.5 0c3.5 2.9 7.5 5.6 11.6 8.3 2.2 1.5 4.5 3 6.7 4.5 2 1.4 4 3 5.8 4.4 4.5 3.5 8.8 6.9 13.5 8.4 5.3 2.6 10.3 3.9 15.1 3.9q6 0 11.4-2.7C273.1 21.5 279 9.9 281.3 0m11.1 0c0 .7-.1 1.5-.2 2.2-.4 5.2-.9 11.1.5 14.6s4.6 5.2 9.6 5.2c2.6 0 5.2-.4 7.3-.8h.1c.5-.1 1-.1 1.5-.1 2 0 4.1.6 6 1.2 1 .3 2.1.6 3.1.8.8.2 1.7.3 2.5.5 3.4.7 6.9 1.4 10.1 2.8 1.3.6 2.5 1.1 3.8 1.7 6.2 2.7 12.6 5.5 16.8 10.9.3.3.5.7.7 1 2.9 4.3 5.4 8.9 7.8 13.4 2.7 5.1 5.6 10.3 9 15 3.3 4.6 7.7 9.8 12 14.7 1.5 1.7 2.9 3.4 4.3 5 6.8 8.1 13.2 15.7 25.1 15.7 3 0 6.3-.5 9.9-1.4 10.3-2.8 28.4-9.7 34.6-24.7 1.6-4 2.7-9.5 3.9-15.4.9-4.4 1.8-9 3-12.8" />
	<path class="st0" d="M379.7 0c.6 2.4 1.2 4.7 1.9 6.6 6.4 8.6 17.7 13.8 30.3 13.8 3.1 0 6.2-.3 9-.9C432.2 17 435.8 9.3 437.4 0M307.6 0c2.7 6.4 7.2 10.3 13 11.1 5.7.8 11.1 2.5 16.4 4.1 3.4 1.1 6.9 2.2 10.4 3 2.3.5 4.5 1 6.5 1.3 2.1.3 3.9.5 5.4.5 3.1 0 5-.6 5.5-1.9 1.6-3.4 2.8-10.9 2.9-18.1" />
	<path class="st0" d="M446.3 0v.5l-.3 5.1c-.3 7.9-.5 14.8-5.8 18.8-5.5 4.2-15 5.4-22 6.3-.7.1-1.4.2-2 .3-1.2.2-2.5.2-3.7.2-7.1 0-14.7-2.4-22-4.7-6.6-2-13.3-4.2-19.7-4.5-3.6 1-4.5 4.9-4.2 8.2 1 12.7 5.5 23.2 15.5 36 2 2.6 3.9 5.2 5.7 7.7 3.1 4.3 6 8.3 9.5 12.2 5.1 5.8 11.6 8.7 19.1 8.7 8.8 0 18.6-4.1 27.1-11.2 8.7-9.4 10-21.9 10.6-33.9 0-.9.1-1.9.1-2.9.1-4.8.3-10.8 2.6-13.8 2.1-2.6 4.5-4.6 7-6.4m.1 77.9c-1.6.8-3.2 1.5-4.8 2.3-3.6 1.7-7.1 3.2-9.7 5.4-1.5 1.2-3.7 3-3.5 5.4.5.4.9.8 1.3 1.2 2.7.5 5.5.8 8.3.8q4.2 0 8.4-.9M458.7 0c0 .6-.1 1.2 0 1.8.2 3 2.7 5.6 5.2 5.6" />
	<path class="st0" d="M428.7 41.6c-1.4 0-2.9.2-4.4.4-3.3.6-6.8 1.7-10.5 2.8-4.2 1.2-8.5 2.5-12.6 3.2-3.8.7-5.5 2.4-5 5.2 1.3 2.8 2.4 5.9 3.5 9.3 2.3 7.2 4.8 14.7 10.7 18.6 2.8 1.8 6.2 2.8 9.9 2.8 5.9 0 12-2.5 16.3-6.6 3.5-3.4 6.1-9 6.8-15 .8-6.3-.4-12.2-3.5-16.3-2.1-2.7-6.4-4.4-11.2-4.4zm-246.3 95.8c1.1 2.1 2.2 4.2 3.2 6.3.8 1.8 1.7 3.7 2.5 5.6 5 11.4 10.2 23.1 17.7 32.6 2.9 3.6 6.4 7.1 9.7 10.5 3.2 3.2 6.3 6.2 8.7 9.3 1.2 1.4 2.2 3 3.2 4.6 2.1 3.2 4 6.3 7.3 8.3l.9-.1c12.5-.7 23.3-1.4 34.8-3.5 8.2-1.5 14-3.1 17.2-4.7 6.6-3.4 8.4-9.5 10.3-15.9.2-.7.4-1.3.6-2 2.8-9.1 6.9-18.3 17.3-24.1l.3-.3c2.2-1.1 4.3-2.3 6.5-3.5 3.8-2 7.7-4.1 11.6-6.1 1.7-.9 3.3-1.8 5-2.6 2.5-1.4 5.2-2.8 7.8-4.1 1.8-.9 3.4-2.1 5-3.2l1.2-.9c1.4-1.1 3.1-2.1 4.9-2.8 3.4-1.4 7.3-1.5 10.9-1.7 3.2-.1 6.5-.3 9.6-1.2 2.9-.9 5-1.6 6.7-4.1 5.5-8 2.7-14.1-1.8-21.7-4.8-8-10.5-14.2-17.2-18.5-1.2-.8-2.5-1.4-3.7-2-1.4-.7-2.8-1.3-4.1-2.2-1.5-1-2.9-2.2-4.3-3.2-1.1-.9-2.3-1.8-3.5-2.7-4.8-3.5-10.6-7.4-17.1-9.6-2.2-.8-4.7-.9-6.5-.9s-3.6.2-5.2.5c-2 .4-3.6 1.3-5.4 2.2-.7.4-1.5.8-2.3 1.2-.9.4-1.8.7-2.6 1-1.1.4-2.3.8-3.3 1.4-2.6 1.4-5.2 3.1-7.7 4.8-2.4 1.6-4.8 3.2-7.4 4.6-11.9 6.7-22.2 10.5-32.1 11.9-3 .4-6 .7-9 .7-3.7 0-7.4-.3-11-1-2.8-.5-5.7-1.3-8.5-2.1-4.9-1.4-10-2.8-14.9-2.8-2.7 0-5.2.4-7.5 1.3-4.7 1.7-8.9 5.3-13.4 9.2-2.3 1.9-4.6 4-7.2 5.9q-.9.6-2.1 1.5c-1.8 1.3-4.1 2.9-6 4.5-3.6 3.1-4.6 5.9-3.4 9.8.8 3 2.5 6.3 4.3 9.8z" />
	<path class="st0" d="m201.4 151.9.4 1.6c4.4 16.2 10.8 25.8 23.9 35.4l.3.2c7 5.1 13.1 9.6 19.9 11.8 3.4 1.1 7.5 1.7 11.9 1.7 5.9 0 11.8-1 16-2.7 10.9-4.5 14.9-14.1 19.5-25.2 6-14.5 16.6-33.3 32.7-40.3 2.9-1.3 5.7-1.5 8.7-1.8 1.1-.1 2.3-.2 3.5-.4 4.6-.6 9.6-1.6 15.6-2.9.8-.2 1.7-.4 2.5-.5 4.3-1 10.1-3.7 12-8.2 1.4-3.3 1.2-6.4-.6-9-5.2-7.9-23.3-10.6-30.7-10.6h-.1c-3.3 0-6.6.3-9.9.7-1.8.2-3.7.4-5.6.5-3.1.2-5.7 1.1-8.8 3.1-3.2 2-6.7 3-10.9 3-3.1 0-6.3-.5-9.7-1-1-.2-2.1-.3-3.1-.5-4.4-.6-9.1-.9-14.9-.9-3.6 0-7.2.1-10.6.2-3.5.1-7 .2-10.5.2-6.4 0-11.5-.4-16.3-1.2-1.4-.3-2.9-.6-4.5-1-3.4-.8-7.3-1.8-11.1-1.8-2.1 0-4.1.3-5.9.8-9 2.7-16.4 13.6-17.8 22.2-.5 3.2-.4 6.5.2 10.3 1.1 5.8 2.5 10.9 3.9 16.3zm262.5-8.8c-1.6-.2-3.1-.4-4.6-.4-5.7 0-10.8 1.8-15.1 5.3-.5.9-1 1.7-1.4 2.3-1.5 2.4-2.4 3.9-2.9 7.9-.4 3.2-.2 6.4-.1 9.6.1 3.7.3 7.6-.3 11.4-2.2 13.5-12.9 27.4-25 32.3-1.2.5-2.7 1.1-3.8 1.3-.9.1-1.7.2-2.5.2-7.1 0-8.7-6.9-10.2-13.6-.4-1.5-.7-3-1.1-4.5-1.6-5.5-3.8-9.2-7-11.8-3.3-2.7-7.7-4.4-14.2-5.6-2.7-.5-5.1-.7-7.5-.7-4.6 0-8.9.9-14.6 2.8-.3.1-.5.2-.7.3-3.2 1.1-5.8 2-7.7 5-3.6 5.7-6.6 14.9-5.2 21.4 1.4 6.4 6 7.7 10.9 9 .9.3 1.9.5 2.9.8 1.5.5 2.7 1 3.7 1.6 7.4 4.1 15.5 7.9 25.7 11.8 8.6 3.3 12.8 10.7 16.8 17.7 3.9 6.8 8 13.9 16.1 17.3 1.2.5 2.6.8 4.1.8 1.8 0 3.8-.4 5.9-1.1 5.8-2 10.9-8.2 14.8-13.4 6-8.1 13.6-18.2 22.4-24.7.2-.2.5-.3.7-.5" />
	<path class="st0" d="M463.9 156.7q-1.2-.3-2.4-.3c-4.3 0-8 2.9-9.6 7.4-1.1 3.2-1.3 6.6-1.6 10.4q-.15 1.95-.3 4.2c-.5 5.9-1.6 11.9-2.7 17.7s-2.1 11.2-2.3 15.5c.7.5 1.4 1 2.3 1 .2 0 .3 0 .5-.1 2.2-1.2 4.5-2.4 6.7-3.5 3.2-1.5 6.4-3.1 9.4-5.1m-95.1-11c-4.1 0-8.2 2-8.2 6.4 1.3 4.4 7.3 9.7 12.6 9.7 1.3 0 2.5-.3 3.5-1q2.25-1.5 2.7-4.2c.4-2.3-.3-5-1.8-7-1.7-2.4-5.2-3.9-8.8-3.9zm70.6 26.7c-.4-.2-.9-.2-1.3-.2-1.8 0-3.8 1.1-5.7 2.2l-2.1 1.2-1.2.6c-6.2 3-14.7 7.2-14.1 17.1.9 3.1 3.4 6.2 7.3 6.2.3 0 .7 0 1.1-.1 6.9-2.9 11.1-10.9 14-17.7l.2-.5c1.2-2.9 2.6-6.3 1.8-8.8zm-76.2 76.1c-2-1.9-4.1-2.9-6.1-2.9-4.7 0-7.8 5.4-8.5 10.7-.5 4-.4 8.4.3 12 .7 3.5 2.1 5.3 5 6.3q1.05.3 2.4.6c1.6.3 2.9.5 4.2.5 3.4 0 5.9-1.2 7.4-3.5 1.7-2.7 1.4-8.8 1-12-.7-4.6-2.7-8.9-5.7-11.7zM0 370.8c3.6-.7 7.4-1.2 11.3-1.7 3.7-.5 7.6-1 11.3-1.7 2.1-.4 3.8-.8 5.5-1.2 2.1-.5 4-1 6.5-1.4 2.3-.3 4.7-.5 7.1-.7 5.3-.3 10.8-.7 15.4-3.2 5.9-3.1 6.5-10.9 4.5-17.3-3.4-10.8-7.8-18.3-13.4-22.9C46.1 319 44 317 42 315c-4-4-8.2-8.2-13.6-10.3-4.1-1.7-8.9-2.9-13.5-4.1-2.8-.7-5.6-1.5-8.4-2.3-1.3-.4-2.7-.9-4.1-1.4L0 296" />
	<path class="st0" d="M0 359c3.3-.6 6.8-1.3 10.1-2.4 2.6-.8 5.2-1.6 7.7-2.3 4.9-1.4 9.9-2.8 14.7-4.9 4.7-2.1 9.6-4.5 11.7-9.3 2.8-6.3.1-13.2-7.2-18.2-1.3-.9-2.5-1.8-3.6-2.6-4.9-3.6-9.5-7-16.2-8.2-4.3-.8-10.7-1.3-17.2-1.5" />
	<path class="st0" d="M0 380.4c5.2-.8 10.6-.6 16.3-.4 4.9.2 10 .4 15-.1 4.6-.5 8.8-1.4 12.8-2.3 1-.2 2-.5 3-.7.8-.2 1.5-.3 2.3-.5 7.7-1.7 15.8-3.3 22.3-7.8 7.6-5.2 8.6-16 5.1-23.5-3.2-6.9-8.5-12.3-13.6-17.5-4.3-4.3-8.7-8.8-11.8-14.1-1.4-1.9-2.6-3.8-3.8-5.6-3.7-5.8-6.7-10.4-14.5-12.2C18 292.1 5 289.1 2.6 274c-.9-5.3.3-9.5 1.4-13.5.9-3.2 1.8-6.2 1.6-9.6-.4-.4-.8-.8-1.2-1.1-.5-.5-1-1-1.6-1.5-1 .1-1.9.2-2.7.4m166.3 82.6c.7.3 1.4.6 1.9 1 2.5 1.8 4.7 4.3 6 6.1 3.5 4.5 5.5 8.9 6.8 14.6 1.9 8 6.9 11.1 14.9 13.9 4.6 1.6 9.6 2.4 14.6 2.4 2.5 0 5-.2 7.4-.6 8.6-1.5 14.1-6.8 15.2-14.3.2-1.6.5-3.2.8-4.8 1.2-6.4 2.4-13.1-1.4-19-3.1-4.8-8.8-5.5-14.6-5.5h-3.3c-1.1 0-2.2.1-3.2.1-2.1 0-3.6-.1-5-.3-4.6-.7-9.2-1.9-13.6-3-7.3-1.8-14.2-3.5-21.1-3.5-1.5 0-2.9.1-4.3.2-1.8.2-3.3 1.7-4.3 4.1-.9 2.2-1.1 5.1.3 6.8.8.7 1.9 1.2 2.9 1.8z" />
	<path class="st0" d="M206.1 360.3c2.6 0 5.2-.5 6.5-.9.4-.1.8-.3 1.1-.4 2.1-1 3.3-2.7 3.3-4.7 0-1.6-.7-3.3-1.9-4.5-1.7-1.7-4-2.3-6.2-1.7-2.4.7-7.5 3.6-9 6.8-.5 1.1-.6 2.1-.2 3.1.9 1.8 4 2.3 6.4 2.3zm65.4 93.1c1.2-4.1 1.6-8.3 1.2-11.7v-3.2c-.4-3.5-1.8-7.8-3.3-12.3-1.5-4.6-3.1-9.4-3.9-14-.3-1.9-.5-4-.7-6-.6-6.6-1.3-13.3-5.9-16.3-2.1-1.4-5.1-2-9.5-2-2.5 0-5.1.2-7.8.4-1 .1-2 .1-3.1.2-9.1.5-27.9 2.9-34.5 7.9-9 6.8-10 18.5-9.9 29 1.1 13.3 10.1 20.7 20.1 28.2m-183.8-.2c.3-3.1.5-6.5.3-10.2-.1-3.1 0-6.1.1-9.1.1-4.6.3-8.9-.5-12.3-1.9-8.5-12.7-14.6-22.1-17.5-2.8-.9-5.4-1.1-8.1-.9" />
	<path class="st0" d="M260.7 453.4c1.4-4.5 1.7-9.3.9-13.7-.4-2.1-1.2-4.6-2-7.3-1.1-3.8-2.5-8.2-3.1-12.6-.2-1.3-.4-2.4-.5-3.6-1-7.6-1.9-13.5-6.9-17.5-3.4-2.7-9.9-4.3-17.2-4.3-8.9 0-17.2 2.3-22.2 6-8.2 6.2-8.5 17.1-7.3 25.2 1.8 8.6 8 13 15.8 18.7 3.6 2.6 7.4 5.3 11.3 8.8l.3.3m-114.6 0c-1.4-3.9-3-7.8-4.5-11.6-2.1-5.2-4.1-10.1-5.5-14.9-.9-3.2-1.6-9.1-1.1-13.2q.15-1.2.6-2.7c.9-3.3 1.9-7.5-2.3-10.5-7.8-.9-12.5 5.5-16.7 11.1-1.1 1.5-2.1 2.9-3.2 4.1-3.8 4-9 6.8-14.4 9.9-8.5 4.7-17.3 9.6-21.4 19.1-1.2 2.7-2.2 5.8-3.2 8.8" />
	<path class="st0" d="M228.3 400.9c-4.8 0-9.6 1.4-12.7 3.8-4.1 3.1-6.5 6.8-6.1 15.7 2.8 11.4 15.2 17.6 25.4 17.6q1.95 0 3.9-.3c1.4-1.1 2.7-2.6 4.1-4.3 3.8-11.6 3.6-21.3-.5-26.5-2.8-3.8-8-6-14.1-6zm-45.7 52.5c-.1-.1-.2-.3-.3-.4-4-5.8-5.5-13-6.9-20-1.6-7.8-3.3-15.9-8.4-22.3-2.6-3.3-5.9-4.6-10-4-8.4 1.3-18.4 8.9-23.8 13-6 6.3-8.3 13.9-7 23.2.5 3.3 1.4 6.9 2.4 10.4" />
	<path class="st0" d="M229.4 415.6c-.8-1.4-2.1-2.2-3.5-2.2-.4 0-.9.1-1.3.3-.8.6-1.4 1.6-1.5 2.5-.1.7.1 1.3.6 1.7.3.2.6.5.8.8.4.2.9.2 1.3.2 1.4 0 2.7-.8 3.5-2.2.1-.3.1-.7.1-1.1zM19.2 453.4c0-1.2 0-2.5-.2-3.9-.7-7.6-3.6-18.4-8.3-24.2C8 422 5.5 420.6 0 419.6m165.9 33.8c-.6-1.7-1.2-3.6-1.8-5.6-2.9-9.2-6.1-19.7-15-19.7h-.9c-2.9.2-5.5 1.6-7.5 3.9-2.8 3.3-4.1 8.5-3.5 14.4.2 2.3.6 4.6 1.1 6.9m-30.2.1c-.3-.7-.7-1.4-1-2.1-4.6-8.4-10.9-13.7-17.3-14.6-1.5-.2-2.9-.3-4.4-.3-5.9 0-11.7 1.6-16.8 4.6-4.9 3-8.9 7.2-11.6 12.3m-51.8.1c0-1.5-.3-3-.8-4.2-.9-2-2.3-3.2-4.1-3.2H0" />
	<path class="st0" d="M96.5 453.4c-3.2-2.5-7.1-3.9-11.4-3.9-4.4 0-8.6 1.4-12.1 3.9m323.2 0c-2-2.3-3.9-5.3-5.7-9.2s-3.8-7.6-6-11.6c-2.5-4.7-5.2-9.5-7.3-14.5-1.2-2.7-2.2-5.7-3.3-8.9-4.7-13.6-10.1-29-26.7-29h-.7c-6 .1-11.7 2.3-15.4 4-.9.4-1.8.8-2.8 1.3-2.8 1.3-5.7 2.6-8.2 4-7.5 4.2-16.2 6.2-24.5 8.2h-.1c-.7.2-1.5.4-2.3.5-5.6 1.2-12.6 2.7-14.8 9.2-1.7 5-.1 11.4 1.4 17.6.5 2.3 1.1 4.4 1.4 6.4 1.2 7 1.3 13.6.2 19.7-.1.8-.3 1.6-.5 2.4m183-63.2c-.4.1-.8.1-1.2.2-1.6.3-3.6.9-4.7 1.3-13.7 5.2-22.8 14.9-26.4 28.2-1 3.7-1.7 8.4-2.4 13-.9 5.7-1.7 11.6-3.2 15.7-.6 1.8-1.5 3.3-2.6 4.7" />
	<path class="st0" d="M463.9 295.9c-5.5-1.9-12.1-3.8-19.2-2.2-4.4 1-8.6 3.1-12.7 5.2s-8.3 4.2-12.6 5.1c-11.2 2.4-15.4-7.4-19.1-16.1l-1.5-3.6c-2.1-4.6-4.5-8.7-7.1-12.4-5.3-7.4-11.3-13.3-18-17.5-6.2-3.9-11.4-6-16.4-6.7-8.1-1.1-13.8 1.4-20.5 4.3-1.4.6-2.9 1.3-4.5 1.9-4.4 1.8-9.3 3.8-12.7 8.2-2.5 3.3-4.5 7.3-6.3 11.1l-.4.9c-3.4 7.1-5.9 14.1-8.6 21.5-.6 1.7-1.2 3.4-1.8 5-1.6 4.6-3.2 9.3-5.2 13.8-1.5 3.4-3.8 6.4-6 9.3-1.2 1.6-2.5 3.3-3.6 5-2.8 4.3-7.3 8.1-11.6 11.8-1.6 1.3-3 2.6-4.4 3.9-.9.8-1.8 1.6-2.8 2.4-4.5 3.9-9.5 8.2-10.9 13.8-.2.7-.3 1.5-.5 2.2-1.4 6.2-2.7 11.6-8.9 15.5-5.9 3.7-13 4.9-19.3 5.9-3 .5-6 .9-8.9 1.3-5.4.7-10.5 1.4-15.1 2.6-10.5 2.8-17 10.1-19.1 21.8-2.1 11.4 0 25.2 2.4 30.9 2.1 5.1 5.7 9.1 9.9 12.7" />
	<path class="st0" d="M463.9 358.6c-4.7.9-9.4 2-13.8 3.9-6.8 2.8-11.9 7.8-16.8 12.5-5.1 5-9.9 9.6-16.2 11.5-8.8 2.6-15.4-3.9-21.8-10.1l-1.2-1.2c-3.3-3.2-7.2-5.5-10.9-7.8-2.7-1.7-5.5-3.4-8-5.4-1.9-1.5-3.9-2.9-5.9-4.2-1.3-.9-2.7-1.9-4-2.8-2.2-1.6-3.6-4.1-5.1-6.5-.8-1.3-1.6-2.6-2.5-3.8-2.5-3.2-6-5.6-9.4-7.9-6.2-4.3-12.1-8.3-12.5-16.7-.2-5 .9-11.2 3.1-17 2.1-5.5 6.1-11.5 10.9-16.4 3.3-3.3 6.6-4.9 9.9-4.6 5.9.5 10.9 6.7 14.6 12 2.2 3.2 3.1 6.2 4 9.4.5 1.9 1.1 3.8 1.9 5.8s1.8 4 2.8 5.9c1.5 3 3.1 6.2 4.1 9.5 1.6 5.6 2 13.7-.6 18.4-2.5 4.5-1.3 12.2 1.3 16.3 2.4 3.7 8.3 6 13 7.9q1.65.6 3 1.2c.4.2.9.4 1.3.6 1.5.7 2.8 1.3 4.3 1.6 7.4 1.5 12.5-2 15.5-10.8 3.2-9.2 1-17.6-6.3-23.6-2.2-1.8-4.8-3.2-7.2-4.6-1.1-.6-2.3-1.3-3.4-1.9-.3-.2-.6-.3-.9-.5-3.2-1.9-7.2-4.3-9.4-7.1-3.3-4.1-6-8.6-8-13.4-1-2.4-1.8-4.9-2.7-7.5-.6-1.9-1.3-3.8-2-5.8-1.7-4.5-4.3-8.4-6.1-11-3.5-4.7-9.7-11.1-15.9-13.4-9.8-3.6-23.1 6.1-29.6 13.5-3.6 4.1-6 9.3-7.9 13.8-.5 1.2-1 2.5-1.5 3.7-2.7 6.8-5.2 13.1-9.5 19-1.4 1.9-2.5 3.9-3.6 5.9-.8 1.4-1.6 2.9-2.5 4.3-2.3 3.6-5.8 5.7-9.2 7.5-1.6.8-3.2 1.6-4.8 2.3-4.6 2.1-9.3 4.3-13.1 8-2.4 2.3-3.4 4.8-2.9 7.3.9 4.2 5.5 7.3 9.6 8.8 8.4 3.2 18.2 2 26.8 1l1.1-.1c.7-.1 1.4-.1 2-.2 3.8-.4 7.4-.8 11-2.8.6-.3 1.1-.6 1.7-1 5.4-3.1 10.2-5.8 16.4-7.2 3.9-.9 9.8-.8 13.3 1.4 1.8 1.1 2.5 2.8 3.3 4.5.5 1.1 1 2.2 1.7 3.2 3 3.9 7 7 10.9 10 3.8 2.9 7.8 5.9 10.8 9.7 1.8 2.3 3.3 5.1 4.7 7.8s3 5.5 4.7 7.7c3.6 4.4 8.4 5.9 13.6 4.3 4.6-1.4 9.6-5.3 14.5-9.1.8-.6 1.5-1.1 2.2-1.7 2.6-1.9 5-4 7.5-5.9 6.6-5.4 12.9-10.5 20-13.3 2.8-1.1 6-1.9 9.4-2.6" />
	<path class="st0" d="M463.9 309.6c-8.7-.2-17.8.2-22.6 1.3-3.5.7-7.1 2.5-10.8 4.4-6.3 3.1-12.7 6.3-18.7 4.4-10.7-3.3-14.8-14.7-18.5-24.8-.8-2.1-1.4-4-2.2-5.9-1.7-4.1-3.7-8-6.2-11.4-3.8-5.3-8.5-8.6-13.4-12-.8-.5-1.5-1-2.3-1.6-4.4-3.1-9.7-6.2-15.8-5.3-1.9.3-3.9 1.3-5.9 2.3-1.2.6-2.4 1.2-3.5 1.6-.8.3-1.7.6-2.6.9-6.6 2.4-13.4 4.8-18.1 10.2-1.3 1.5-2.5 3.5-3.6 5.4-.6 1-1.1 1.9-1.7 2.8q-3.45 5.4-6 11.7c-1.8 4.5-2.8 9.4-3.8 14.1-1.1 5.1-2.2 10.4-4.3 15.2-2.1 4.9-7.7 8.5-12.6 11.6-1.3.9-2.6 1.7-3.7 2.5-3.3 2.3-6.3 5.1-9 7.9-1.8 1.8-3.7 3.6-5.7 5.3-4.6 3.9-6.7 10.6-5.5 17.5 2.3 12 6.9 14 17.1 15.7 7.7 1.3 16.7 1 27.4-.9 6.2-1.1 12.1-5.1 17.8-8.9 2.1-1.4 4-2.7 5.9-3.9 8-4.8 17.4-3.8 25.3 2.7l3 2.4c6 4.8 11.6 9.3 14.6 16.5 1.3 3.1 2.2 6.5 3.1 9.7.8 3.2 1.7 6.4 3 9.5 1.9 4.7 5.7 9.8 9.9 13.5 3.6 3.2 9 6.6 14.5 5 5.1-1.5 8.1-7.3 11.3-13.4 2-3.9 4.1-7.9 6.9-11.3 3.6-4.4 8.5-8.3 11.8-10.9l.3-.3c7.1-5.5 13.9-10.8 22.8-12.5.6-.1 1.1-.2 1.7-.3m.1-247.8c-11-.4-20.4 1.8-27 6.4q-8.85 6.15-10.5 17.1c-.4 2.8-.1 6 .2 9 .4 3.2.7 6.4.2 9.5-.5 3.5-2.4 6.7-4.8 8.1-1.7 1-3.6 1.1-5.5.4-6.3-7.4-11.5-12.3-19.3-15.4-2.2-.9-4.5-1.7-7.3-2.6-1.4-.4-2.7-.9-4.1-1.3-8.5-2.8-17.3-5.6-31.5-4.5-6.9.6-12 1.8-16.5 6.4-3 3-5.2 6.6-7.4 10.1-1.6 2.5-3.2 5.1-5 7.5-.9 1.2-2.1 2.4-3.1 3.5-1.6 1.7-3.3 3.4-4.5 5.4-2.5 4-2.6 10.7-1.7 15.2 1.3 5.9 5 10.9 8.8 15.6.9 1.2 1.8 2.4 2.8 3.8 2.5 3.6 5.1 7.3 8.7 9.2 4 2.1 8.6 2.1 13 1.8 1.5-.1 3.1-.5 4.6-.9 2.2-.6 4.5-1.2 6.7-.8 7.8 1.4 16.7 6.9 22.4 11.5 3.1 2.5 5.9 5.3 8.3 8.4 1.9 2.4 3.7 4.8 5.7 7.4 3.3 4.4 6.7 9 10.6 13.6 3.6 4.2 8.3 8.2 15.7 5.7 4.2-1.5 7.8-4 11.2-6.4 5-3.7 9.5-8.8 13.8-13.8 4-4.6 7.7-8.9 11.5-11.5 1-.7 2.2-1.4 4.1-1.8M121.5 0c.2.7.4 1.4.6 2.2 1.8 6.5 3.6 12.6 4.3 18.5.4 3 .8 8.6-.2 12.4-1.7 6.2-6.8 11.5-11.6 16.7-6.8 7.3-13.9 14.8-11.8 24.9 1.2 5.4 4.1 8.8 9 10.3 4.2 1.3 9.5 1.2 15.4.8 10.7-.6 18 1.2 22.3 2.8s8.2 4.3 12 7c5.1 3.5 10 6.9 15.4 7.6 2.2.3 4 .2 6-.2 5.1-1.1 9-3.7 13.1-6.4 6.9-4.6 14.1-9.4 28-6.6 3.1.6 6.1 1.5 9.3 2.5 10.3 3 20.9 6.2 32.7-.1 10.7-5.4 17.5-15.3 24-24.8 3-4.5 6.2-9.1 9.7-13.1 4.5-5.2 10.5-12.3 18-9.8 3 1 6.1 1.4 9.1 1.9 4.7.8 9.6 1.5 14 4.3 3.2 2 5.6 4.8 8 7.5 1.1 1.3 2.3 2.6 3.5 3.8 2.7 2.7 4.8 5.9 6.9 8.9 1.8 2.6 3.6 5.3 5.8 7.7 2.9 2.6 5.4 4.8 8.4 7.5 3.6 3.3 6.8 7.1 10 10.9 6 7.2 11.7 14 19.2 16.1 5.3 1.6 10.7 1.3 17.6-.6 3.7-1.1 8.6-3.2 12-4.7 7-3.2 14.8-7.5 21-11.6 4.8-3.2 8.5-7.7 10.7-13m0 319.9c-.7 0-1.4.1-2.2.3-11.4 2-19 10.9-21.8 26-.8 4.3-1.2 8.7-1.5 13-.3 3.7-.6 7.4-1.2 10.8" />
	<path class="st0" d="M379.9 453.4c-.3-1.3-.6-2.6-.9-4-.6-2.7-1.2-5.4-1.9-7.9-1.3-4.4-3.3-9-5.2-13.4l-.3-.8c-1.3-2.9-2.3-6-3.4-9.3-2.2-6.7-4.5-13.7-9.1-18.7-4.1-4.4-10.7-7-18.2-7-4.2 0-8.3.8-11.7 2.4-4.1 1.8-7.4 4-10.1 6.6-2.3 2.2-5.6 3.3-8.8 4.5-2.1.7-4.3 1.5-6.3 2.6-5.8 3.3-9.5 7.9-10.6 13.4-1 5.1-.9 11.7-.8 18 0 3.9.1 7.9 0 11.6 0 .6-.1 1.4-.1 2" />
	<path class="st0" d="M367.8 453.4c0-2.8-.1-5.6-.5-8.1-.5-3.5-1.1-7.4-2.5-10.9-.6-1.4-1.4-2.6-2.3-3.7q-1.05-1.35-1.8-2.7c-.8-1.4-1.4-3-2-4.7-1.9-4.8-3.8-9.7-9.1-11.1-1.3-.3-2.9-.5-5-.5-2.2 0-4.6.2-6.7.4-.8 0-1.6.1-2.3.2-6.8.4-14.1 3-19.6 7-6.5 4.8-8.4 12.8-9.3 18.4-.6 4.1-1.2 10 .7 15.1l.3.6m156.2-33.8h-.2c-10.2.9-15.9 12-17.4 33.8m17.6-7.4q-1.35.15-2.7.9c-1.1 1.8-2.2 4-2.4 6.4m-337.1.1c-1.1-4-2.3-8.1-3.2-12.3-1.1-5.3-1-12.6.2-16.7 1.7-5.4 4.5-8.7 9-13.7.7-.8 1.5-1.6 2.3-2.4 3.2-3.3 6.8-7 7.6-10.9 1.6-7.8-3.2-12.3-8.1-15.8-2.4-1.7-5.2-3-7.8-4.3-3.4-1.7-7-3.4-9.9-5.9-3.1-2.7-5.8-6.5-8-11.4-1-2.2-1.4-4.5-1.9-6.8-.4-2.2-.9-4.5-1.8-6.6-4.3-9.6-9.9-20.5-19.1-28.2-4-3.3-9.1-8.6-10.4-14.8-.9-4.1.3-7.7 1.3-10.6l.2-.5c2.2-6.5 8.7-22 22.4-25.9 2.4-.7 5.5-1.2 8.6-1.8 4-.7 8.1-1.4 11.1-2.5 4.7-1.7 8-4.1 11.6-6.8l.5-.4c3.4-2.6 7.6-5.8 13.1-5.4 4.8.4 10.2 2.9 15 6.9s8 8.9 8.8 13.4c.5 2.9.8 5.2 1 7.5.2 1.9.4 3.8.7 5.8 1.8 10.1 6.6 18.2 14.5 24 6.4 4.7 14.8 8 25.2 9.8 13.5 2.3 24.9-2.1 29.2-4.1 6.8-3.2 14.1-10.8 20.4-17.8 6.3-6.9 9.6-11 10.3-21.9.2-3.5 0-6.9-.3-10.2l-.3-3.9c0-1-.1-1.9-.2-3-.3-3.3-.6-6.8 0-10.3 1.3-7.3 5.5-10.5 12.9-9.8 9.7.9 18.2 7.3 21.6 16.4 2.7 7.2.5 14.7-1.2 20.8l-.3 1c-2.9 10-6.8 17.9-12 24-2.9 3.4-6.2 6.6-9.3 9.8-1.2 1.1-2.4 2.3-3.5 3.5-1.6 1.7-3.5 3.2-5.2 4.6-2.2 1.8-4.5 3.8-6.4 6-2.7 3.1-4.8 6.6-6.4 9.6-5.4 9.9-9.1 18.6-11.5 26.7-2.1 7.2-7.9 13-15.6 15.4-9.9 3.1-24 2.7-41.9-1.1-8.8-1.9-14.1-6.9-15.6-15-1.7-9.3-8-13.9-14.6-18.7-1.7-1.3-3.5-2.6-5.2-3.9-7-5.8-3.5-11.2.2-17 1.7-2.6 3.4-5.2 4.1-8 1.2-4.2-.3-8.7-1.8-13.1-.8-2.3-1.5-4.4-1.8-6.5-1.7-10-3.4-17.9-8.5-21.2-2.7-1.7-6.2-2-10.7-.7-.7.2-1.5.4-2.4.7-1.7.5-3.7 1.1-5.3 1.4-2.8.6-5.7 1-8.8 1.4-3.3.4-6.7.8-10.4 1.6-5.7 1.2-10.7 3.9-14.4 7.9-3.7 3.9-6 8.9-6.8 14.3-.3 2.3-.4 4.3.2 6.5 1.9 6.3 7.6 10.8 12.7 14.7 1.2.9 2.3 1.8 3.3 2.6l.2.1c4.9 4.1 11 9.1 10.8 16-.2 7.1.7 12.3 3 17.3 3.7 7.9 9 12.7 18.2 16.5.7.3 1.4.6 2.1.8 3.2 1.3 6.4 2.6 9.4 4.3 2.5 1.4 4.1 3.1 5.9 5 1 1 2 2.1 3.1 3.1 1.4 1.2 2.7 2.8 4 4.5 3.5 4.3 7.4 9.1 13.4 8 3.1-.6 6.2-2.7 9.4-5 2.8-2 5.8-4 9.1-5.3 5.6-2.2 13.4-2.7 21.8-3.3 5-.3 10.3-.7 15.1-1.4 10.9-1.7 18.2-5.5 22.5-11.7 1.3-1.8 2.1-3.8 2.9-5.8.6-1.5 1.2-3.1 2.1-4.6.6-1.1 1.6-2 2.5-2.8.5-.5 1.1-.9 1.5-1.5.9-1 1.7-2 2.5-3 .9-1.1 1.8-2.2 2.8-3.3 1.5-1.7 3.3-3.2 5-4.8 1.6-1.4 3.2-2.9 4.7-4.5 1.2-1.3 2.2-2.7 3.2-4 1.1-1.5 2.2-3.1 3.6-4.5 2.5-2.5 5.1-5.1 7.1-8.1 1.8-2.6 2.6-5.1 3.4-7.7.2-.8.5-1.7.8-2.5.7-1.9 1.9-3.7 3-5.5.7-1 1.4-2.1 2-3.2 2.2-4 4.1-8.1 5.6-12l1.2-3.3c.2-.5.3-.9.5-1.4.8-2.1 1.6-4.2 2.3-6.3 2.3-6 4.6-12.1 5.8-17.7.8-3.6 1.4-7.4.6-11.2-2.8-13-15.4-26.5-26.9-29-5.3-1.1-12-1.1-18.9.2-11.4 2.1-15.6 7.6-15 19.6.1 2.8.4 5.6.6 8.4.5 5.9 1.1 11.5.4 16.9-.4 3.1-1.4 5.9-2.1 7.7-1.7 4-5.5 10.9-10.3 18.4-4.7 7.3-11 12.7-17.3 14.7-12 3.8-28.1 0-37.5-8.8-4.7-4.4-9.7-12-6.9-22.8.2-.7.4-1.3.8-2 .4-.8.8-1.7 1-2.7 1.4-2.5 3.3-4.8 5-6.9 4-4.9 7.7-9.6 6.3-16.2-.3-1.2-.8-2.5-1.4-3.9-1.2-2.9-2.4-5.8-1-7.6 2.5-3.1 5.9-6.3 9.4-9.7 6.2-5.9 12.6-12 14.4-17.7s-1.9-11.4-3.5-13.9c-1.7-2.6-3.7-5.3-5.8-8.2-1.6-2.2-3.3-4.5-4.9-6.8-1.3-1.9-2.6-3.7-3.9-5.6-2.9-4.2-5.7-8.2-8.5-12.4-1.1-1.7-2.3-3.5-3.4-5.2-1.8-2.9-3.7-5.9-5.7-8.5-4.2-5.6-8.9-7.9-14.1-6.8-5.1 1-10.7 5-15.5 8.6-.7.5-1.3 1-1.9 1.5-9 6.7-19.2 14.4-21.8 22.8-2.3 7.2 1.9 10.6 6.4 14.1.5.4 1 .8 1.4 1.2 3 2.4 5.2 5 7 7.1 2.5 2.9 4.7 6.4 6.8 9.8 1.5 2.4 2.9 4.7 4.3 6.5 4.9 6.4 11.2 9.2 17.3 11.9 6 2.7 12.2 5.4 16.9 11.5v.7c0 .6 0 1.3-.1 1.9-5.6 6-12.5 7.5-21.1 4.6-2.6-.9-5.2-2.3-8-3.8-6.2-3.3-12.6-6.8-19.9-4.6-5.3 1.6-9 5.3-12.5 8.9s-7.1 7.3-12.4 9.1c-3.1 1-6.2 1.4-10.7 1.7-11.2.9-16.6 2.1-21.3 8-6.1 7.7-13.6 21.4-15.9 27-.9 2.3-1.5 3.9-1.7 5.2-2 9.8 4.1 17.5 9.6 23.2 1.3 1.3 2.8 2.6 4.2 3.8 1.3 1.1 2.6 2.2 3.8 3.4 2.4 2.4 4.4 5.4 6.3 8.2 1 1.4 1.9 2.9 3 4.3 7.5 10 9.8 18.8 7.4 28.4-1.8 6.9-5.8 15.6-15 18-3.4.9-7.1 1.3-10.9 1.7-3.6.4-7.3.9-10.9 1.7-3.2.7-6.2 1.7-9.1 2.6-4.1 1.3-7.9 2.5-11.9 3-7 .9-13.1-.5-19.1-1.9-5.3-1.2-10.3-2.4-15.2-1.7" />
	<g />
	<g />
	<g />
	<g />
	<g />
	<g />
</svg>
